<svg xmlns="http://www.w3.org/2000/svg" height="2048" preserveAspectRatio="none" style="display: block;" version="1.1" viewBox="0 0 2048 2048" width="2048">
<defs>
	<linearGradient gradientUnits="userSpaceOnUse" id="Gradient1" x1="1216.06" x2="1344.86" y1="796.514" y2="728.738">
		<stop class="stop0" offset="0" stop-color="rgb(79,217,255)" stop-opacity="1"></stop>
		<stop class="stop1" offset="1" stop-color="rgb(0,255,255)" stop-opacity="1"></stop>
	</linearGradient>
	<linearGradient gradientUnits="userSpaceOnUse" id="Gradient2" x1="657.881" x2="1275.48" y1="1172.16" y2="969.706">
		<stop class="stop0" offset="0" stop-color="rgb(255,0,79)" stop-opacity="1"></stop>
		<stop class="stop1" offset="1" stop-color="rgb(132,206,255)" stop-opacity="1"></stop>
	</linearGradient>
</defs>
<path d="M 0 0 L 2048 0 L 2048 2048 L 0 2048 L 0 0 z" fill="rgb(12,15,10)" transform="translate(0,0)"></path>
<path d="M 975.38 532.427 C 976.142 532.364 976.904 532.31 977.668 532.266 C 1000.33 531.112 1028.21 531.855 1051.38 531.858 L 1183.75 531.868 L 1291.24 531.815 C 1317.49 531.82 1350.4 530.561 1375.48 535.759 C 1406.55 542.243 1435.36 556.793 1459.01 577.945 C 1524.67 636.72 1518.99 699.74 1518.91 778.967 L 1518.94 906.688 L 1518.89 1004.26 C 1518.85 1030.23 1519.27 1054.45 1517.01 1080.39 C 1507.31 1185.01 1463.97 1283.67 1393.48 1361.59 C 1310.96 1453.15 1195.79 1508.67 1072.75 1516.19 C 1047.53 1517.57 1017.84 1516.83 992.326 1516.82 L 859.996 1516.8 L 759.397 1516.77 C 733.023 1516.76 699.372 1517.98 674.176 1512.78 C 642.594 1506.33 613.296 1491.6 589.288 1470.09 C 524.907 1413.33 529.582 1348.99 529.567 1271.76 L 529.566 1144.47 L 529.596 1045.95 C 529.617 1019.92 529.221 993.763 531.461 967.837 C 540.926 866.056 582.557 769.935 650.322 693.405 C 733.037 598.759 849.966 540.853 975.38 532.427 z" fill="rgb(217,255,46)" transform="translate(0,0)"></path>
<path d="M 846.357 1169.92 C 845.006 1086.23 846.225 999.676 846.227 915.767 L 846.029 838.262 C 845.956 819.498 842.246 791.95 856.027 778 C 871.829 762.004 900.181 765.531 921.253 765.518 L 996.484 765.55 L 1251.18 765.238 L 1222.59 793.908 C 1218.13 798.309 1213.71 802.748 1209.33 807.225 C 1215.18 816.629 1209.33 816.18 1213.19 821.872 C 1217.49 828.2 1223.8 835.263 1232.22 833.896 L 1102.1 965.423 C 1190.46 964.369 1189.33 953.015 1186.93 1050.89 C 1186.66 1062.08 1180.89 1077.23 1167.79 1077.79 C 1147.13 1078.67 1126.16 1078.55 1105.37 1078.66 C 1066.21 1078.81 1027.04 1079.16 987.879 1079.71 C 981.533 1084.87 969.204 1098.07 962.895 1104.37 L 962.088 1205.06 C 962.036 1217 962.644 1251.11 960.904 1261.47 C 960.077 1266.19 957.743 1270.5 954.252 1273.77 C 951.039 1276.75 946.673 1278.7 942.36 1278.66 C 918.502 1278.41 890.487 1280.6 866.97 1278.89 C 861.137 1278.44 855.763 1275.55 852.173 1270.94 C 842.974 1259.34 846.222 1235.67 845.91 1220.69 C 826.671 1236.48 741.803 1328.68 728.701 1334.04 C 725.234 1335.48 721.328 1335.42 717.907 1333.88 C 710.308 1330.48 702.565 1319.94 708.646 1310.32 C 722.638 1288.19 842.068 1182.31 846.357 1169.92 z" fill="rgb(12,15,10)" transform="translate(0,0)"></path>
<path d="M 1209.33 807.225 C 1215.18 816.629 1209.33 816.18 1213.19 821.872 C 1217.49 828.2 1223.8 835.263 1232.22 833.896 L 1102.1 965.423 C 1190.46 964.369 1189.33 953.015 1186.93 1050.89 C 1186.66 1062.08 1180.89 1077.23 1167.79 1077.79 C 1147.13 1078.67 1126.16 1078.55 1105.37 1078.66 C 1066.21 1078.81 1027.04 1079.16 987.879 1079.71 C 981.533 1084.87 969.204 1098.07 962.895 1104.37 L 962.088 1205.06 C 962.036 1217 962.644 1251.11 960.904 1261.47 C 960.077 1266.19 957.743 1270.5 954.252 1273.77 C 951.039 1276.75 946.673 1278.7 942.36 1278.66 C 918.502 1278.41 890.487 1280.6 866.97 1278.89 C 861.137 1278.44 855.763 1275.55 852.173 1270.94 C 842.974 1259.34 846.222 1235.67 845.91 1220.69 C 826.671 1236.48 741.803 1328.68 728.701 1334.04 C 725.234 1335.48 721.328 1335.42 717.907 1333.88 C 710.308 1330.48 702.565 1319.94 708.646 1310.32 C 722.638 1288.19 842.068 1182.31 846.357 1169.92 C 849.165 1169.17 887.652 1129.5 893.695 1123.73 C 943.332 1071.96 995.928 1021.65 1046.18 970.27 C 1048.89 967.686 1051.63 965.147 1054.42 962.655 C 1061.68 954.272 1074.1 942.674 1082.33 934.397 C 1098.41 918.089 1114.59 901.885 1130.88 885.787 C 1138.67 878.699 1150.05 866.466 1157.79 858.641 C 1174.82 841.35 1192 824.211 1209.33 807.225 z" fill="url(#Gradient2)" transform="translate(0,0)"></path>
<path d="M 1102.1 965.423 C 1190.46 964.369 1189.33 953.015 1186.93 1050.89 C 1186.66 1062.08 1180.89 1077.23 1167.79 1077.79 C 1147.13 1078.67 1126.16 1078.55 1105.37 1078.66 C 1066.21 1078.81 1027.04 1079.16 987.879 1079.71 C 995.811 1070.46 1014.09 1053.33 1023.33 1044.12 L 1097.07 970.344 C 1098.45 969.34 1100.8 966.752 1102.1 965.423 z" fill="rgb(12,15,10)" transform="translate(0,0)"></path>
<path d="M 962.895 1104.37 L 962.088 1205.06 C 962.036 1217 962.644 1251.11 960.904 1261.47 C 960.077 1266.19 957.743 1270.5 954.252 1273.77 C 951.039 1276.75 946.673 1278.7 942.36 1278.66 C 918.502 1278.41 890.487 1280.6 866.97 1278.89 C 861.137 1278.44 855.763 1275.55 852.173 1270.94 C 842.974 1259.34 846.222 1235.67 845.91 1220.69 C 858.062 1205.21 893.871 1176.8 904.152 1162.08 C 917.457 1151.29 949.563 1117.69 962.895 1104.37 z" fill="rgb(12,15,10)" transform="translate(0,0)"></path>
<path d="M 968.645 886.092 L 1130.88 885.787 C 1114.59 901.885 1098.41 918.089 1082.33 934.397 C 1074.1 942.674 1061.68 954.272 1054.42 962.655 C 1051.63 965.147 1048.89 967.686 1046.18 970.27 L 968.037 970.806 L 968.645 886.092 z" fill="rgb(217,255,46)" transform="translate(0,0)"></path>
<path d="M 1251.18 765.238 C 1266.36 750.985 1280.33 735.728 1295.38 721.404 C 1306.79 710.537 1321.78 689.697 1336.76 708.128 C 1339.46 711.408 1340.62 715.687 1339.96 719.881 C 1339.49 722.834 1338.07 725.893 1336.01 728.067 C 1304.51 761.456 1271.66 794.88 1239 827.146 C 1236.77 829.424 1234.51 831.674 1232.22 833.896 C 1223.8 835.263 1217.49 828.2 1213.19 821.872 C 1209.33 816.18 1215.18 816.629 1209.33 807.225 C 1213.71 802.748 1218.13 798.309 1222.59 793.908 L 1251.18 765.238 z" fill="url(#Gradient1)" transform="translate(0,0)"></path>
<path d="M 1209.33 807.225 C 1213.71 802.748 1218.13 798.309 1222.59 793.908 C 1222.75 798.018 1223.53 801.56 1225.76 805.099 C 1227.35 807.625 1224.52 808.617 1225.47 809.663 C 1227.31 811.385 1228.05 810.832 1227.1 813.513 C 1226.97 813.896 1228.25 819.076 1228.76 820.425 C 1231.42 827.373 1233.61 827.395 1239 827.146 C 1236.77 829.424 1234.51 831.674 1232.22 833.896 C 1223.8 835.263 1217.49 828.2 1213.19 821.872 C 1209.33 816.18 1215.18 816.629 1209.33 807.225 z" fill="rgb(77,196,255)" transform="translate(0,0)"></path>
<metadata><recraft-signature>{"signed_by": "recraft", "signature_b64": "tSetcgcuqo3G6wvS0q3uUG5f9C4xPV41MQjFuIyhBoceaJBXYBGX1saZ4qgiDwHWM5ECWpZa5g7tB1j8HFUdDA==", "signing_algo": "Ed25519", "generation_timestamp": 1784327287, "identifier": "51765c8e-7f8e-453b-bd5d-6a9128d47dd1"}</recraft-signature></metadata></svg>