<svg xmlns="http://www.w3.org/2000/svg" height="480" preserveAspectRatio="xMidYMid meet" style="display: block;" version="1.1" viewBox="330 592 2050 500" width="2050">
<defs>
	<linearGradient gradientUnits="userSpaceOnUse" id="Gradient1" x1="1884.22" x2="1897.22" y1="902.1" y2="977.45">
		<stop class="stop0" offset="0" stop-color="rgb(245,91,212)" stop-opacity="1"></stop>
		<stop class="stop1" offset="1" stop-color="rgb(194,166,249)" stop-opacity="1"></stop>
	</linearGradient>
	<linearGradient gradientUnits="userSpaceOnUse" id="Gradient2" x1="2134.23" x2="2145.45" y1="789.768" y2="864.689">
		<stop class="stop0" offset="0" stop-color="rgb(255,45,169)" stop-opacity="1"></stop>
		<stop class="stop1" offset="1" stop-color="rgb(199,155,252)" stop-opacity="1"></stop>
	</linearGradient>
	<linearGradient gradientUnits="userSpaceOnUse" id="Gradient3" x1="1771.94" x2="1782.98" y1="917.405" y2="970.589">
		<stop class="stop0" offset="0" stop-color="rgb(210,143,242)" stop-opacity="1"></stop>
		<stop class="stop1" offset="1" stop-color="rgb(152,202,246)" stop-opacity="1"></stop>
	</linearGradient>
	<linearGradient gradientUnits="userSpaceOnUse" id="Gradient4" x1="1760.25" x2="1749.35" y1="772.645" y2="887.883">
		<stop class="stop0" offset="0" stop-color="rgb(247,9,122)" stop-opacity="1"></stop>
		<stop class="stop1" offset="1" stop-color="rgb(241,89,202)" stop-opacity="1"></stop>
	</linearGradient>
</defs>
<path d="M 464.746 649.342 C 472.216 648.342 490.012 648.724 498.138 648.755 L 555.998 648.997 L 618.049 648.889 C 633.11 648.84 652.324 648.215 666.89 650.714 C 680.292 653.091 693.015 658.36 704.173 666.155 C 726.166 681.064 741.305 704.128 746.236 730.237 C 749.269 747.19 748.008 806.729 748.015 826.751 L 748.025 888.511 C 748.013 902.269 748.54 919.44 746.359 932.707 C 744.003 947.764 738.226 962.079 729.474 974.555 C 712.992 997.865 690.67 1010.06 662.952 1014.74 C 650.904 1016.3 634.332 1015.9 621.978 1015.91 L 561.985 1015.9 L 502.245 1015.95 C 488.356 1015.96 471.487 1016.56 458.055 1014.27 C 442.918 1011.76 428.598 1005.68 416.285 996.524 C 374.171 965.408 375.639 922.737 376.795 875.942 C 377.045 865.836 376.853 855.18 376.842 845.035 L 376.726 777.689 C 376.701 763.124 376.027 742.695 378.597 728.934 C 381.558 713.644 388.065 699.262 397.595 686.944 C 414.388 664.933 437.593 653.007 464.746 649.342 z" fill="rgb(217,255,46)" transform="translate(0,0)"></path>
<path d="M 492.151 720.783 L 644.767 720.767 L 644.643 771.7 C 614.817 772.003 584.144 771.517 554.252 771.404 L 553.989 814.317 C 540.181 820.351 527.318 826.581 513.792 833.192 C 508.789 835.637 497.132 841.714 492.28 843.32 C 491.561 803.126 492.159 761.117 492.151 720.783 z" fill="rgb(12,15,10)" transform="translate(0,0)"></path>
<path d="M 598.053 808.312 C 610.207 808.351 622.361 808.283 634.514 808.107 L 634.506 859.135 L 554.098 859.014 L 553.91 949.414 L 492.159 949.285 L 492.144 856.706 L 500.206 853.283 C 516.006 846.749 535.465 837.078 551.233 829.711 C 563.208 824.164 586.705 812.32 598.053 808.312 z" fill="rgb(12,15,10)" transform="translate(0,0)"></path>
<path d="M 622.799 783.352 C 629.641 778.698 687.978 756.673 695.521 756.311 C 691.938 759.031 686.461 761.41 683.929 764.267 C 685.335 764.65 686.376 764.879 687.714 765.463 C 669.043 771.526 648.184 786.234 630.246 792.454 C 625.129 795.019 608.933 803.381 604.05 804.597 L 598.053 808.312 C 586.705 812.32 563.208 824.164 551.233 829.711 C 535.465 837.078 516.006 846.749 500.206 853.283 L 492.144 856.706 C 476.666 863.218 460.423 869.164 445.389 875.566 L 443.942 872.815 C 439.392 874.283 433.302 877.209 429.007 874.51 C 438.339 869.992 447.617 865.392 457.15 861.313 C 462.109 859.323 468.21 856.282 473.161 853.983 C 479.557 850.74 485.929 847.451 492.277 844.116 L 492.28 843.32 C 497.132 841.714 508.789 835.637 513.792 833.192 C 527.318 826.581 540.181 820.351 553.989 814.317 L 622.799 783.352 z" fill="rgb(255,77,141)" transform="translate(0,0)"></path>
<path d="M 626.849 789.153 C 628.956 790.529 628.891 790.388 630.246 792.454 C 625.129 795.019 608.933 803.381 604.05 804.597 L 598.053 808.312 C 586.705 812.32 563.208 824.164 551.233 829.711 C 535.465 837.078 516.006 846.749 500.206 853.283 L 492.144 856.706 C 476.666 863.218 460.423 869.164 445.389 875.566 L 443.942 872.815 C 449.031 871.503 453.974 868.929 458.76 866.69 C 464.145 864.448 468.611 862.364 473.848 859.784 C 480.591 857.11 487.71 853.547 494.311 850.414 L 499.593 847.797 C 516.674 840.429 535.83 829.779 552.383 823.427 C 556.767 820.538 589.694 806.037 595.274 803.553 C 605.616 798.362 616.148 793.558 626.849 789.153 z" fill="rgb(77,196,255)" transform="translate(0,0)"></path>
<path d="M 622.799 783.352 C 629.641 778.698 687.978 756.673 695.521 756.311 C 691.938 759.031 686.461 761.41 683.929 764.267 C 685.335 764.65 686.376 764.879 687.714 765.463 C 669.043 771.526 648.184 786.234 630.246 792.454 C 628.891 790.388 628.956 790.529 626.849 789.153 C 631.063 786.199 645.502 780.582 651.325 777.588 C 642.198 774.914 632.214 781.217 622.799 783.352 z" fill="rgb(248,180,72)" transform="translate(0,0)"></path>
<path d="M 683.929 764.267 C 685.335 764.65 686.376 764.879 687.714 765.463 C 669.043 771.526 648.184 786.234 630.246 792.454 C 628.891 790.388 628.956 790.529 626.849 789.153 C 631.063 786.199 645.502 780.582 651.325 777.588 C 654.864 776.682 680.371 766.052 683.929 764.267 z" fill="rgb(105,227,182)" transform="translate(0,0)"></path>
<path d="M 1077.28 771.585 C 1132.71 765.64 1182.47 805.743 1188.44 861.173 C 1194.41 916.602 1154.33 966.381 1098.9 972.377 C 1043.44 978.376 993.622 938.264 987.648 882.799 C 981.674 827.334 1021.81 777.533 1077.28 771.585 z M 1066.95 775.248 C 1136.06 769.803 1198.78 950.269 1109.95 969.757 C 1035.68 977.429 980.61 790.868 1066.95 775.248 z" fill="rgb(245,245,240)" fill-rule="evenodd" clip-rule="evenodd" transform="translate(0,0)"></path>
<path d="M 1666.76 899.659 C 1660.81 889.271 1665.13 857.24 1668.52 845.719 C 1694.23 758.314 1800.78 742.14 1844.81 826.035 C 1844.74 826.861 1844.85 826.995 1844.54 827.538 C 1844.22 827.721 1802.38 827.723 1797.61 828.014 C 1800.26 829.683 1800.06 829.501 1802.97 830.175 C 1826.28 835.558 1847.07 851.685 1851.91 876.013 C 1853.07 881.838 1854.39 895.069 1852.51 900.383 C 1848.94 923.435 1836.3 944.104 1817.41 957.789 C 1773.69 989.182 1703.33 974.829 1678.5 927.196 C 1673.65 921.508 1668.1 907.172 1666.76 899.659 z" fill="rgb(12,15,10)" fill-opacity="0" transform="translate(0,0)"></path>
<path d="M 1666.76 899.659 C 1660.81 889.271 1665.13 857.24 1668.52 845.719 C 1694.23 758.314 1800.78 742.14 1844.81 826.035 C 1844.74 826.861 1844.85 826.995 1844.54 827.538 C 1844.22 827.721 1802.38 827.723 1797.61 828.014 C 1794.2 827.691 1793.37 828.558 1789.81 829.4 C 1781.81 827.621 1771.18 827.643 1762.93 828.278 C 1759.14 829.386 1754.86 829.395 1751.01 830.176 C 1739.56 832.501 1729.99 835.952 1720.07 842.016 C 1715.62 844.74 1713.41 847.02 1709.37 849.901 C 1699.57 856.068 1693.83 870.875 1691.92 881.795 L 1694.39 891.849 C 1688.5 890.971 1693.75 878.746 1682.57 878.389 C 1673.48 878.098 1664.15 875.583 1666.06 888.489 C 1666.47 892.09 1668.69 897.82 1666.76 899.659 z" fill="rgb(12,15,10)" fill-opacity="0" transform="translate(0,0)"></path>
<path d="M 1666.76 899.659 C 1660.81 889.271 1665.13 857.24 1668.52 845.719 C 1694.23 758.314 1800.78 742.14 1844.81 826.035 C 1841.25 827.21 1809.19 828.127 1808.59 825.048 C 1790.54 793.994 1761.08 760.291 1721.43 783.143 C 1704.27 793.037 1692.01 814.415 1687.54 833.392 C 1683.86 848.45 1684.6 864.25 1689.69 878.892 C 1690.44 880.417 1690.72 880.534 1691.92 881.795 L 1694.39 891.849 C 1688.5 890.971 1693.75 878.746 1682.57 878.389 C 1673.48 878.098 1664.15 875.583 1666.06 888.489 C 1666.47 892.09 1668.69 897.82 1666.76 899.659 z" fill="url(#Gradient4)" transform="translate(0,0)"></path>
<path d="M 1808.59 825.048 C 1809.19 828.127 1841.25 827.21 1844.81 826.035 C 1844.74 826.861 1844.85 826.995 1844.54 827.538 C 1844.22 827.721 1802.38 827.723 1797.61 828.014 C 1794.2 827.691 1793.37 828.558 1789.81 829.4 C 1781.81 827.621 1771.18 827.643 1762.93 828.278 L 1762.57 826.917 C 1774.22 824.727 1802.55 826.924 1808.59 825.048 z" fill="rgb(156,50,126)" transform="translate(0,0)"></path>
<path d="M 1712.69 845.079 C 1717.43 836.941 1752.96 826.692 1762.57 826.917 L 1762.93 828.278 C 1759.14 829.386 1754.86 829.395 1751.01 830.176 C 1739.56 832.501 1729.99 835.952 1720.07 842.016 C 1715.62 844.74 1713.41 847.02 1709.37 849.901 C 1710.48 848.266 1711.54 846.686 1712.69 845.079 z" fill="rgb(103,57,101)" transform="translate(0,0)"></path>
<path d="M 1689.69 878.892 C 1691.45 875.473 1691.68 872.461 1693.21 868.72 C 1697.04 859.364 1704.44 850.812 1712.69 845.079 C 1711.54 846.686 1710.48 848.266 1709.37 849.901 C 1699.57 856.068 1693.83 870.875 1691.92 881.795 C 1690.72 880.534 1690.44 880.417 1689.69 878.892 z" fill="rgb(156,50,126)" transform="translate(0,0)"></path>
<path d="M 1666.76 899.659 C 1668.69 897.82 1666.47 892.09 1666.06 888.489 C 1664.15 875.583 1673.48 878.098 1682.57 878.389 C 1693.75 878.746 1688.5 890.971 1694.39 891.849 C 1697.7 899.241 1701.09 905.518 1705.74 912.18 C 1707.76 915.078 1710.91 918.393 1712.43 921.141 C 1728.4 936.016 1740.45 943.262 1762.01 948.603 C 1800.78 958.204 1840.23 943.534 1849.96 901.962 L 1852.51 900.383 C 1848.94 923.435 1836.3 944.104 1817.41 957.789 C 1773.69 989.182 1703.33 974.829 1678.5 927.196 C 1673.65 921.508 1668.1 907.172 1666.76 899.659 z" fill="url(#Gradient3)" transform="translate(0,0)"></path>
<path d="M 1666.76 899.659 C 1668.69 897.82 1666.47 892.09 1666.06 888.489 C 1664.15 875.583 1673.48 878.098 1682.57 878.389 C 1693.75 878.746 1688.5 890.971 1694.39 891.849 C 1697.7 899.241 1701.09 905.518 1705.74 912.18 C 1707.76 915.078 1710.91 918.393 1712.43 921.141 C 1710.4 925.09 1725.08 934.601 1728.44 937.31 L 1728.42 937.451 C 1728.42 937.452 1720.83 939.656 1720.32 939.244 C 1719.89 938.899 1718.54 937.569 1717.48 937.904 C 1713.49 939.396 1708.73 937.087 1705.48 940.03 C 1705 940.388 1702.96 940.81 1702.57 940.723 C 1700.56 940.249 1694.59 945.039 1693.58 943.904 C 1688.96 938.682 1683.84 933.006 1680.43 926.878 C 1680.04 926.184 1679.27 926.884 1678.5 927.196 C 1673.65 921.508 1668.1 907.172 1666.76 899.659 z" fill="rgb(215,133,234)" transform="translate(0,0)"></path>
<path d="M 1789.81 829.4 C 1793.37 828.558 1794.2 827.691 1797.61 828.014 C 1800.26 829.683 1800.06 829.501 1802.97 830.175 C 1826.28 835.558 1847.07 851.685 1851.91 876.013 C 1853.07 881.838 1854.39 895.069 1852.51 900.383 L 1849.96 901.962 C 1856.1 857.421 1831.12 835.886 1789.81 829.4 z" fill="rgb(103,57,101)" transform="translate(0,0)"></path>
<path d="M 1400.86 813.69 C 1409.32 782.723 1436.7 764.215 1468.54 773.213 C 1495.62 780.868 1509.57 801.885 1516.22 828.013 C 1521.78 808.23 1527.27 788.117 1546.8 777.543 C 1575.99 761.731 1612.14 776.526 1626.83 805.13 C 1637.7 826.301 1636.13 847.052 1636.09 869.956 L 1635.94 930.203 C 1635.9 943.488 1633.01 965.33 1645.45 973.035 C 1649.05 972.483 1649.24 972.507 1652.86 973.158 L 1652.87 974.484 C 1648.36 975.264 1632.9 975.599 1628.67 975.148 C 1620.7 974.299 1582.07 977.447 1578.41 972.982 C 1581.57 971.956 1581.95 972.224 1585.39 972.885 L 1586.36 973.082 C 1588.34 971.917 1590.1 970.749 1591.41 968.821 C 1594.25 964.641 1595.04 958.455 1595.52 953.502 C 1597.38 934.354 1595.92 913.77 1595.88 894.482 C 1595.84 873.075 1598.16 848.011 1594.48 827.142 C 1592.01 813.169 1584.97 799.912 1573.06 791.801 C 1566.17 787.114 1556.37 784.496 1548.14 786.3 C 1539.79 788.129 1533.47 793.572 1529.14 800.752 C 1523.14 810.689 1520.4 822.984 1518.91 834.367 C 1516.57 852.243 1515.59 950.954 1519.39 964.706 C 1520.65 969.256 1522.67 970.736 1526.66 973.029 C 1529.32 972.38 1531.17 972.688 1533.88 972.867 C 1532.15 976.652 1462.28 975.76 1459.23 973.791 C 1463.34 971.676 1466.53 972.081 1471.2 972.028 C 1472.58 969.943 1473.75 967.835 1474.58 965.469 C 1477.9 956.014 1477.92 849.527 1476.47 834.445 C 1475.75 826.543 1473.74 818.813 1470.5 811.567 C 1455.28 778.163 1416.61 774.972 1403.2 813.86 C 1402.26 817.683 1401.12 821.833 1400.47 825.687 C 1397.66 844.949 1395.38 958.543 1402.5 968.942 C 1403.61 970.557 1404.99 971.799 1406.56 972.954 C 1409.48 972.396 1412.45 972.589 1415.29 973.375 L 1414.99 974.557 C 1408.46 975.499 1346.33 975.784 1341.09 974.297 L 1341.17 973.266 C 1344.54 972.303 1344.78 972.428 1348.38 972.829 L 1349.32 972.943 C 1360.59 964.985 1358.35 945.667 1358.11 932.982 C 1357.28 888.863 1359.44 843.501 1357.91 799.513 C 1352.91 801.983 1348.42 804.106 1343.3 806.314 L 1341.92 804.973 L 1342.42 806.61 L 1340.71 806.005 L 1341.08 806.97 L 1340.34 806.998 L 1340.42 806.221 C 1345.34 801.793 1353.01 798.135 1358.98 794.942 L 1398.71 772.031 C 1398.73 782.777 1398.68 793.524 1398.58 804.269 C 1398.57 807.169 1398.05 813.75 1399.54 815.696 L 1400.86 813.69 z" fill="rgb(245,245,240)" transform="translate(0,0)"></path>
<path d="M 2101.14 770.982 C 2111.96 771.7 2121.83 775.975 2131.08 781.372 C 2136.7 784.96 2139.71 787.483 2144.44 792.297 C 2163.9 815.526 2162.19 835.369 2161.94 864.294 C 2162.02 876.657 2161.98 889.021 2161.83 901.384 C 2161.82 915.408 2161.3 929.741 2162.07 943.711 C 2162.81 957.35 2168.49 960.025 2180.43 956.854 L 2181.2 957.57 C 2169.56 967.275 2144.97 985.097 2131.72 967.57 C 2125.23 958.986 2126.07 944.471 2126.1 934.081 L 2126.18 926.188 C 2125.05 928.427 2123.79 930.723 2122.97 933.075 C 2120.33 939.029 2118.73 942.302 2114.48 947.389 C 2090.87 974.105 2052.94 984.845 2021.11 965.646 C 2014.02 962.219 2009.03 958.286 2003.98 952.286 C 1991.2 943.243 1987.63 919.255 1989.88 904.653 C 1990.07 903.87 1990.27 903.088 1990.47 902.308 C 1997.53 874.948 2019.79 859.752 2042.69 846.264 C 2068.19 831.608 2114.62 825.025 2116.4 790.704 L 2113.52 784.879 C 2105.21 776.882 2099.28 775.06 2088.41 772.81 C 2088.98 770.314 2098.1 771.281 2101.14 770.982 z" fill="rgb(12,15,10)" fill-opacity="0" transform="translate(0,0)"></path>
<path d="M 2125.97 907.186 C 2130.05 908.429 2126.24 910.482 2130.04 911.1 C 2136.6 911.868 2149.83 902.888 2155 903.837 C 2162.68 905.246 2157.65 893.693 2160.52 893.339 C 2161.18 895.775 2161.45 898.821 2161.83 901.384 C 2161.82 915.408 2161.3 929.741 2162.07 943.711 C 2162.81 957.35 2168.49 960.025 2180.43 956.854 L 2181.2 957.57 C 2169.56 967.275 2144.97 985.097 2131.72 967.57 C 2125.23 958.986 2126.07 944.471 2126.1 934.081 L 2126.18 926.188 C 2125.05 928.427 2123.79 930.723 2122.97 933.075 C 2120.33 939.029 2118.73 942.302 2114.48 947.389 C 2090.87 974.105 2052.94 984.845 2021.11 965.646 C 2014.02 962.219 2009.03 958.286 2003.98 952.286 C 1991.2 943.243 1987.63 919.255 1989.88 904.653 C 1998.78 903.835 2012.16 902.328 2020.08 904.971 C 2022.5 924.885 2024.19 921.98 2032.13 936.78 L 2032.76 937.322 C 2041.58 945.002 2041.53 946.886 2053.27 952.825 C 2074.95 962.557 2096.08 962.453 2113.39 945.05 C 2118.93 937.727 2121.04 932.192 2124.12 923.656 C 2125.05 918.297 2125.46 912.617 2125.97 907.186 z" fill="rgb(77,196,255)" transform="translate(0,0)"></path>
<path d="M 1989.88 904.653 C 1998.78 903.835 2012.16 902.328 2020.08 904.971 C 2022.5 924.885 2024.19 921.98 2032.13 936.78 C 2031.04 940.436 2032.03 939.657 2034.62 942.225 L 2034.61 942.333 C 2034.02 942.732 2033.13 942.123 2032.03 942.255 C 2027.77 947.286 2031.03 945.162 2024.06 947.846 C 2019.38 949.65 2017.82 951.08 2012.32 952.32 C 2005.81 953.789 2009.64 952.6 2003.98 952.286 C 1991.2 943.243 1987.63 919.255 1989.88 904.653 z" fill="rgb(215,133,234)" transform="translate(0,0)"></path>
<path d="M 2032.13 936.78 L 2032.76 937.322 C 2041.58 945.002 2041.53 946.886 2053.27 952.825 C 2045.63 954.28 2041.41 945.911 2038.53 947.627 C 2033.85 950.409 2029.12 954.049 2022.76 954.607 C 2022.89 954.661 2013.75 957.304 2013.61 958.726 C 2018.14 961.202 2019.03 961.484 2021.11 965.646 C 2014.02 962.219 2009.03 958.286 2003.98 952.286 C 2009.64 952.6 2005.81 953.789 2012.32 952.32 C 2017.82 951.08 2019.38 949.65 2024.06 947.846 C 2031.03 945.162 2027.77 947.286 2032.03 942.255 C 2033.13 942.123 2034.02 942.732 2034.61 942.333 L 2034.62 942.225 C 2032.03 939.657 2031.04 940.436 2032.13 936.78 z" fill="rgb(173,173,229)" transform="translate(0,0)"></path>
<path d="M 2119.75 792.335 C 2129.62 790.453 2134.56 791.873 2144.44 792.297 C 2163.9 815.526 2162.19 835.369 2161.94 864.294 C 2162.02 876.657 2161.98 889.021 2161.83 901.384 C 2161.45 898.821 2161.18 895.775 2160.52 893.339 C 2157.65 893.693 2162.68 905.246 2155 903.837 C 2149.83 902.888 2136.6 911.868 2130.04 911.1 C 2126.24 910.482 2130.05 908.429 2125.97 907.186 C 2125.39 900.521 2125.77 886.522 2125.81 879.31 C 2125.72 851.311 2129.97 817.773 2118.92 793.28 L 2119.75 792.335 z" fill="url(#Gradient2)" transform="translate(0,0)"></path>
<path d="M 2125.81 879.31 C 2128.17 877.82 2130.25 877.075 2132.53 875.666 C 2133.32 875.175 2132.07 874.136 2131.44 874.052 C 2130.06 873.869 2129.95 875.254 2128.63 874.92 C 2128.42 874.451 2128.42 873.056 2128.59 872.592 C 2129.58 872.256 2130.73 872.626 2131.58 871.913 C 2131.82 871.282 2131.62 870.699 2131.08 870.311 C 2130.1 870.453 2130.12 870.521 2129.09 870.989 C 2128.24 870.796 2128.29 870.621 2127.7 869.822 C 2127.75 869.511 2127.8 869.199 2127.86 868.888 C 2129.43 867.536 2134.94 866.51 2136.96 866.123 C 2140.76 865.393 2144.88 863.776 2148.78 863.747 C 2149.23 863.743 2151.32 864.154 2151.68 863.224 L 2151.54 862.983 C 2151.64 862.945 2153.09 862.457 2153.54 862.502 C 2155.67 862.863 2157.57 861.034 2158.94 860.464 C 2160.13 859.967 2159.05 867.451 2160.38 867.462 C 2160.92 866.418 2161.42 865.35 2161.94 864.294 C 2162.02 876.657 2161.98 889.021 2161.83 901.384 C 2161.45 898.821 2161.18 895.775 2160.52 893.339 C 2157.65 893.693 2162.68 905.246 2155 903.837 C 2149.83 902.888 2136.6 911.868 2130.04 911.1 C 2126.24 910.482 2130.05 908.429 2125.97 907.186 C 2125.39 900.521 2125.77 886.522 2125.81 879.31 z" fill="rgb(148,197,242)" transform="translate(0,0)"></path>
<path d="M 2101.14 770.982 C 2111.96 771.7 2121.83 775.975 2131.08 781.372 C 2136.7 784.96 2139.71 787.483 2144.44 792.297 C 2134.56 791.873 2129.62 790.453 2119.75 792.335 L 2118.92 793.28 C 2109.76 823.079 2093.97 824.795 2067.99 837.533 C 2061.11 840.908 2054.09 845.086 2047.69 849.318 C 2032.77 861.655 2022.39 875.815 2020.55 895.717 C 2020.27 898.794 2020.12 901.881 2020.08 904.971 C 2012.16 902.328 1998.78 903.835 1989.88 904.653 C 1990.07 903.87 1990.27 903.088 1990.47 902.308 C 1997.53 874.948 2019.79 859.752 2042.69 846.264 C 2068.19 831.608 2114.62 825.025 2116.4 790.704 L 2113.52 784.879 C 2105.21 776.882 2099.28 775.06 2088.41 772.81 C 2088.98 770.314 2098.1 771.281 2101.14 770.982 z" fill="rgb(255,77,141)" transform="translate(0,0)"></path>
<path d="M 906.592 771.963 C 905.907 748.294 907.84 728.461 925.211 710.196 C 937.725 696.97 954.978 689.255 973.178 688.746 C 990.289 688.321 1007.41 694.284 1019.87 706.203 C 1025.38 711.474 1032.2 720.816 1032.32 728.664 C 1032.4 733.89 1030.25 738.902 1026.4 742.434 C 1017.05 751.158 1006.55 746.498 998.976 737.537 C 989.027 726.156 980.315 695.63 962.786 694.265 C 941.719 692.624 931.563 723.2 932.525 740.146 C 933.079 749.896 933.582 770.258 946.253 771.971 L 946.993 773.915 L 946.988 900.06 C 946.983 920.366 946.263 941.574 948.093 961.814 C 948.53 966.655 951.282 969.774 954.593 973.077 C 957.767 972.206 962.795 972.055 965.985 973.404 L 965.766 974.385 C 959.549 975.741 896.576 975.437 889.677 974.369 L 889.175 973.522 C 892.515 972.159 893.59 972.563 897.219 972.94 L 898.442 973.077 C 907.481 966.08 906.903 954.67 906.64 943.941 C 905.269 887.965 908.892 829.62 906.355 773.897 L 906.592 771.963 z" fill="rgb(245,245,240)" transform="translate(0,0)"></path>
<path d="M 1257.61 811.755 C 1271.72 769.916 1299.09 762.471 1337.46 779.804 C 1335.35 792.072 1333.05 804.625 1331.17 816.902 C 1314.84 809.112 1292.95 795.55 1274.42 802.634 C 1266.89 805.517 1261.67 811.246 1258.7 818.669 C 1256.72 823.615 1256.15 828.838 1255.81 834.117 C 1254.78 849.881 1253.74 956.172 1257.53 965.325 C 1258.85 968.517 1260.91 970.67 1263.42 972.968 C 1266.58 972.243 1269.44 972.248 1272.13 973.89 C 1268.74 975.752 1200.61 976.021 1197.33 973.891 L 1198.01 972.782 C 1201.43 972.403 1202.18 972.412 1205.61 972.884 L 1206.44 973.005 C 1217.68 964.972 1215.25 952.146 1215.22 939.608 C 1213.86 895.408 1215.03 844.435 1215.01 799.71 C 1209.81 802.204 1202.41 806.261 1196.91 806.768 L 1198.38 806.595 L 1197.73 805.636 L 1196.91 806.627 L 1199.11 806.359 L 1198.98 804.741 C 1202.53 802.425 1208.7 799.305 1212.6 797.183 C 1223.68 789.793 1243.69 778.705 1255.58 772.025 C 1256.53 778.339 1254.63 811.005 1257.61 811.755 z" fill="rgb(245,245,240)" transform="translate(0,0)"></path>
<path d="M 1255.58 772.025 C 1256.53 778.339 1254.63 811.005 1257.61 811.755 C 1257.49 812.469 1256.83 816.769 1255.59 816.48 C 1254.52 814.834 1255.1 776.724 1255.58 772.025 z" fill="rgb(136,123,122)" transform="translate(0,0)"></path>
<path d="M 1918.43 807.923 C 1933.25 769.351 1961.84 762.626 1997.34 780.292 C 1994.64 791.771 1992.21 805.275 1989.26 816.259 C 1956.32 798.642 1915.44 782.581 1915.86 839.561 C 1916.05 852.888 1916.1 866.217 1915.99 879.545 C 1916.01 890.15 1916.26 901.845 1915.91 912.355 C 1915.05 908.834 1915.47 903.462 1911.06 904.022 C 1901.18 905.277 1891.99 902.984 1882.09 903.527 C 1881.42 903.564 1879.49 902.248 1878.58 902.182 C 1877.97 903.42 1877.52 904.696 1876.89 905.932 L 1876.96 868.975 C 1876.85 858.844 1878.09 805.703 1876.17 799.788 C 1876.81 798.805 1877.08 797.985 1877.1 796.808 L 1877.17 795.526 C 1888.27 789.183 1899.24 782.616 1910.08 775.829 L 1916.62 771.887 C 1916.03 777.671 1914.97 806.869 1917 810.903 C 1918.2 809.172 1918.09 809.816 1918.43 807.923 z" fill="rgb(255,77,141)" transform="translate(0,0)"></path>
<path d="M 1876.89 905.932 C 1877.52 904.696 1877.97 903.42 1878.58 902.182 C 1879.49 902.248 1881.42 903.564 1882.09 903.527 C 1891.99 902.984 1901.18 905.277 1911.06 904.022 C 1915.47 903.462 1915.05 908.834 1915.91 912.355 L 1915.95 913.128 C 1916.65 929.088 1914.73 945.716 1917.01 961.51 C 1917.87 967.51 1920.22 969.755 1924.75 972.92 C 1926.19 972.652 1933.78 970.932 1933.94 973.514 C 1933.96 973.811 1933.86 974.103 1933.67 974.333 C 1932.18 976.129 1876.63 974.11 1870.44 975.01 C 1857.25 976.929 1855.29 970.338 1867.71 972.984 C 1881.8 963.47 1876.89 923.319 1876.89 905.932 z" fill="url(#Gradient1)" transform="translate(0,0)"></path>
<path d="M 1924.75 972.92 C 1926.19 972.652 1933.78 970.932 1933.94 973.514 C 1933.96 973.811 1933.86 974.103 1933.67 974.333 C 1932.18 976.129 1876.63 974.11 1870.44 975.01 C 1857.25 976.929 1855.29 970.338 1867.71 972.984 C 1870.48 974.475 1922.94 974.201 1924.75 972.92 z" fill="rgb(173,173,229)" transform="translate(0,0)"></path>
<path d="M 2001.52 815.152 C 2017.47 795.163 2035.54 784.449 2058.82 774.911 L 2062.5 777.877 C 2039.64 790.907 2030.38 809.105 2017.78 830.995 L 2001.52 815.152 z" fill="rgb(255,77,141)" transform="translate(0,0)"></path>
<path d="M 946.253 771.971 C 951.589 771.638 1005.99 771.342 1007.87 772.491 L 1007.93 772.863 C 1005.91 774.932 954.891 773.974 946.993 773.915 L 946.253 771.971 z" fill="rgb(205,201,202)" transform="translate(0,0)"></path>
<path d="M 2058.82 774.911 C 2072.29 771.095 2087.12 768.05 2101.14 770.982 C 2098.1 771.281 2088.98 770.314 2088.41 772.81 C 2075.48 773.582 2075.49 772.546 2062.5 777.877 L 2058.82 774.911 z" fill="rgb(231,18,134)" transform="translate(0,0)"></path>
<path d="M 906.355 773.897 C 902.83 773.952 884.779 774.413 882.825 773.394 C 882.44 770.215 903.664 771.772 906.592 771.963 L 906.355 773.897 z" fill="rgb(205,201,202)" transform="translate(0,0)"></path>
<path d="M 1877.17 795.526 L 1877.1 796.808 C 1877.08 797.985 1876.81 798.805 1876.17 799.788 C 1873.82 800.805 1859.21 808.549 1858.11 807.923 C 1857.09 805.786 1874.75 796.886 1877.17 795.526 z" fill="rgb(231,18,134)" transform="translate(0,0)"></path>
<metadata><recraft-signature>{"signed_by": "recraft", "signature_b64": "IAXJBu9TGQLXdpcxepYlcYy8Zhwn3qKSP7uqiHGKOo3JPsctbmX0mizh7wHDxVOrs87KHDakWPNZLePR9R4oDg==", "signing_algo": "Ed25519", "generation_timestamp": 1784327289, "identifier": "60ed0a80-6f75-4828-8bca-21fa86251f05"}</recraft-signature></metadata></svg>
